<?xml version="1.0" encoding="utf-8"?>
<!-- Generator: Adobe Illustrator 19.0.0, SVG Export Plug-In . SVG Version: 6.00 Build 0)  -->
<svg version="1.1" id="Layer_1" xmlns="http://www.w3.org/2000/svg" xmlns:xlink="http://www.w3.org/1999/xlink" x="0px" y="0px"
	 width="1400px" height="1400px" viewBox="0 0 1400 1400" enable-background="new 0 0 1400 1400" xml:space="preserve">
<g id="XMLID_91_">
	<g id="XMLID_1_">
		<linearGradient id="XMLID_102_" gradientUnits="userSpaceOnUse" x1="714.3275" y1="971.846" x2="705.7471" y2="1329.3691">
			<stop  offset="0" style="stop-color:#FFFFFF"/>
			<stop  offset="1" style="stop-color:#F7C1C0"/>
		</linearGradient>
		<path id="XMLID_454_" fill-rule="evenodd" clip-rule="evenodd" fill="url(#XMLID_102_)" d="M1263.1,1260.1v18.9
			c-79.6,10.7-290.9,18.4-539.1,18.4c-316.4,0-572.9-12.5-572.9-27.8c0-8.6,79.7-16.2,205.1-21.3c5.1-0.2,10.4-0.4,15.7-0.6
			c9.7-0.4,19.7-0.7,29.9-1.1h0c4.9-0.2,9.8-0.3,14.8-0.5c4.3-0.1,8.7-0.3,13.1-0.4c9.4-0.3,19-0.5,28.7-0.8c0,0,0,0,0,0
			c24.4-0.6,49.8-1.2,76.1-1.6c32.4-0.6,66-1,100.8-1.2c28.9-0.2,58.5-0.3,88.7-0.3c58,0,113.9,0.4,166.7,1.2
			c15.8,0.2,31.4,0.5,46.6,0.8c66.5,1.3,126.9,3.2,178.3,5.5c0.6,0,1.3,0.1,1.9,0.1c20.9,1,40.3,2,58,3.1
			C1212.6,1254.7,1242.3,1257.3,1263.1,1260.1z"/>
		<linearGradient id="XMLID_104_" gradientUnits="userSpaceOnUse" x1="361.2685" y1="-127.0706" x2="810.0058" y2="1013.2125">
			<stop  offset="0" style="stop-color:#FFFFFF"/>
			<stop  offset="1" style="stop-color:#E43433"/>
		</linearGradient>
		<path id="XMLID_70_" fill-rule="evenodd" clip-rule="evenodd" fill="url(#XMLID_104_)" d="M1098.3,960.8
			c-22.8,25.9-48.6,49.3-76.3,69.8c-164.8,121.4-395.2,153.9-593.8,126c-21.6-3-40.6-6.6-56.4-9.9c-10-12.8-21.4-28.4-33.4-46.4
			c-58.3-86.9-103.4-183.9-126.6-286.2c-11.9-52.3-20.4-109.2-26.8-162.8c-7.3-62.1-4.6-125.6,11.1-186.3
			c25-96.1,84.4-184.7,169.6-235.8c85.1-51.1,196.1-61,285.1-16.8C757,265.1,797,369.1,805,480.9c43.3-26.9,92-47.5,142.9-48.7
			c81.1-1.9,173.2,64.1,212.3,133.1c43.5,76.8,46.8,173.3,19.5,256C1162.7,872.9,1134.2,919.9,1098.3,960.8z"/>
		<linearGradient id="XMLID_105_" gradientUnits="userSpaceOnUse" x1="574.5244" y1="778.5958" x2="621.7692" y2="778.5958">
			<stop  offset="0" style="stop-color:#FFFFFF"/>
			<stop  offset="0.414" style="stop-color:#FDC0A3"/>
			<stop  offset="1" style="stop-color:#E65E57"/>
		</linearGradient>
		<path id="XMLID_56_" fill-rule="evenodd" clip-rule="evenodd" fill="url(#XMLID_105_)" d="M617,785.3c0,0-25-19.9-39.2-20.2
			c-10.2-0.2,7,17.4,7,17.4s-0.9-0.4-2.5-1c9.6,7.6,19.9,13.2,32.9,9.6c2.1-0.4,4.4-1,6.6-1.8C620.9,787.8,619.3,786.4,617,785.3z"
			/>
		<linearGradient id="XMLID_110_" gradientUnits="userSpaceOnUse" x1="564.4966" y1="741.877" x2="583.7061" y2="824.094">
			<stop  offset="0" style="stop-color:#FFFFFF"/>
			<stop  offset="0.414" style="stop-color:#FDC0A3"/>
			<stop  offset="1" style="stop-color:#E65E57"/>
		</linearGradient>
		<path id="XMLID_58_" fill-rule="evenodd" clip-rule="evenodd" fill="url(#XMLID_110_)" d="M582.3,781.5
			c-10.6-4.1-51.9-18.4-54.1,2.4c-2.1,19.9,71.3,26.7,86.2,21.4c4.9-1.8,10.8-10,7.4-15.9c-2.2,0.8-4.5,1.3-6.6,1.8
			C602.2,794.6,591.9,789.1,582.3,781.5z"/>
		<linearGradient id="XMLID_111_" gradientUnits="userSpaceOnUse" x1="710.0159" y1="679.1006" x2="758.4243" y2="838.9245">
			<stop  offset="0" style="stop-color:#FFFFFF"/>
			<stop  offset="1" style="stop-color:#F7C1C0"/>
		</linearGradient>
		<path id="XMLID_54_" fill-rule="evenodd" clip-rule="evenodd" fill="url(#XMLID_111_)" d="M765.7,843.3
			c-53.5-8.9-104.1-26.4-156-42.9l-2.7,17.9L755,863.8h15.4l105.4-65.6c7.5-6.7,7.9-26.2,2.8-41.8
			C847.8,791,798.9,812.4,765.7,843.3z"/>
		<linearGradient id="XMLID_112_" gradientUnits="userSpaceOnUse" x1="609.7997" y1="789.0028" x2="884.5908" y2="789.0028">
			<stop  offset="0" style="stop-color:#FFFFFF"/>
			<stop  offset="1" style="stop-color:#F7C1C0"/>
		</linearGradient>
		<path id="XMLID_55_" fill-rule="evenodd" clip-rule="evenodd" fill="url(#XMLID_112_)" d="M880.1,757.7c1.5-1.8,2.8-3.7,3.5-5.6
			c2-5,1.1-11.4-3.1-14.7c-3.5-2.8-8.5-3-12.9-2.4c-20.1,2.7-35.9,19-50.4,31.9c-19.3,17.1-38.1,34.6-57.6,51.5l-146.8-37.9l-3,20
			c51.9,16.4,102.5,33.9,155.9,42.9c3.6,0.6,24.7-19.9,28.8-22.8c10.8-7.6,22-14.8,33-22.2c10.9-7.4,21.7-15,31.8-23.5
			C865,770,874.5,764.3,880.1,757.7z"/>
		<path id="XMLID_66_" fill-rule="evenodd" clip-rule="evenodd" fill="#4A192A" d="M598.5,1223.8c0,0-44.4,12.3-63.8,19
			c0,0-5.1,14.3,8.6,17.4c0,0,77.8,0.1,88.1-5.2c0,0,5.8-9.8,4.3-27.3C635.7,1227.7,615.1,1214.9,598.5,1223.8L598.5,1223.8z"/>
		<linearGradient id="XMLID_113_" gradientUnits="userSpaceOnUse" x1="497.4789" y1="877.8423" x2="783.3184" y2="1177">
			<stop  offset="0" style="stop-color:#DB5B5E"/>
			<stop  offset="0.5108" style="stop-color:#AB2A29"/>
			<stop  offset="0.6593" style="stop-color:#962630"/>
			<stop  offset="1" style="stop-color:#661C1B"/>
		</linearGradient>
		<path id="XMLID_62_" fill-rule="evenodd" clip-rule="evenodd" fill="url(#XMLID_113_)" d="M656.6,1018.5
			c51.5-5.3,104.1,3.1,155,13.3c-8.1-23.6-15.5-47.2-17.6-72.2c-46.5,14-140.5,36.3-153.5,42.9c-4.6,7.5-15,15.6-15.8,29.2
			c-3.5,61.1-17.6,189.3-17.6,189.3c2.2,3.2,10,4.9,16.9,5.7c11.9-68.1,27.5-134.9,48-200.6C665.9,1026.2,661.2,1021.6,656.6,1018.5
			z"/>
		<linearGradient id="XMLID_114_" gradientUnits="userSpaceOnUse" x1="609.8669" y1="885.4888" x2="698.9999" y2="1086.806">
			<stop  offset="0" style="stop-color:#DB5B5E"/>
			<stop  offset="0.5108" style="stop-color:#AB2A29"/>
			<stop  offset="0.6593" style="stop-color:#962630"/>
			<stop  offset="1" style="stop-color:#661C1B"/>
		</linearGradient>
		<path id="XMLID_64_" fill-rule="evenodd" clip-rule="evenodd" fill="url(#XMLID_114_)" d="M656.6,1018.5c4.6,3.1,9.2,7.7,15.4,7.7
			c-20.5,65.6-36.1,132.5-48,200.6c6.2,0.8,11.7,0.9,11.7,0.9l47.4-178.8l140.8,18.8c-3.9-12-8.3-24-12.4-35.9
			C760.8,1021.6,708.1,1013.2,656.6,1018.5z"/>
		<linearGradient id="XMLID_115_" gradientUnits="userSpaceOnUse" x1="607.2421" y1="772.6765" x2="893.0807" y2="1071.8334">
			<stop  offset="0" style="stop-color:#DB5B5E"/>
			<stop  offset="0.5108" style="stop-color:#AB2A29"/>
			<stop  offset="0.6593" style="stop-color:#962630"/>
			<stop  offset="1" style="stop-color:#661C1B"/>
		</linearGradient>
		<path id="XMLID_43_" fill-rule="evenodd" clip-rule="evenodd" fill="url(#XMLID_115_)" d="M902.5,1078.4
			c4.6,47.6,4.6,95.3,0,142.9c6-12,16.6-20.2,26.8-28.3l24.9-196.8c0,0-92.9-35.1-145.5-41.3c-4,1.4-9,3-14.8,4.7
			c3.2,36.3,18.4,73.4,30,108.1C848.4,1080.2,874.6,1082.8,902.5,1078.4z"/>
		<linearGradient id="XMLID_116_" gradientUnits="userSpaceOnUse" x1="674.6965" y1="1071.8989" x2="1007.5313" y2="1209.8806">
			<stop  offset="0" style="stop-color:#DB5B5E"/>
			<stop  offset="0.5108" style="stop-color:#AB2A29"/>
			<stop  offset="0.6593" style="stop-color:#962630"/>
			<stop  offset="1" style="stop-color:#661C1B"/>
		</linearGradient>
		<path id="XMLID_45_" fill-rule="evenodd" clip-rule="evenodd" fill="url(#XMLID_116_)" d="M1113.8,1239.8l-3.7-19.5l-180.8-26.5
			l0.1-0.7c-10.2,8.1-20.8,16.4-26.8,28.3c4.6-47.6,4.6-95.3,0-142.9c-35.4-1.5-78.9-11.9-78.5-10.7c0,0,61,178.3,72.9,184.2
			C967.8,1233.8,1041.1,1236.3,1113.8,1239.8z"/>
		<linearGradient id="XMLID_117_" gradientUnits="userSpaceOnUse" x1="747.9901" y1="1139.1808" x2="950.0697" y2="1222.9559">
			<stop  offset="0" style="stop-color:#DB5B5E"/>
			<stop  offset="0.5108" style="stop-color:#AB2A29"/>
			<stop  offset="0.6593" style="stop-color:#962630"/>
			<stop  offset="1" style="stop-color:#661C1B"/>
		</linearGradient>
		<path id="XMLID_61_" fill-rule="evenodd" clip-rule="evenodd" fill="url(#XMLID_117_)" d="M896.9,1251.9c0.6,0.3,1.2,0.5,1.7,0.4
			l217.5-0.4l-2.3-12.1C1041.1,1236.3,967.8,1233.8,896.9,1251.9z"/>
		<linearGradient id="XMLID_118_" gradientUnits="userSpaceOnUse" x1="814.9434" y1="873.4431" x2="930.7523" y2="873.4431">
			<stop  offset="0" style="stop-color:#FFFFFF"/>
			<stop  offset="1" style="stop-color:#F7C1C0"/>
		</linearGradient>
		<path id="XMLID_152_" fill-rule="evenodd" clip-rule="evenodd" fill="url(#XMLID_118_)" d="M982.1,743.9
			c-6.7,10.7-10.5,23.4-12,36.4c-7.1,80.5-46.6,149.3-89.9,214.8c36.9,7.1,70.6,7.8,76.7,7.9l37.8-198.6l1.3-37.6
			C995.1,756.9,989.7,749.5,982.1,743.9z"/>
		<linearGradient id="XMLID_119_" gradientUnits="userSpaceOnUse" x1="956.9771" y1="1003.0206" x2="957.9991" y2="1003.0206">
			<stop  offset="0" style="stop-color:#FFFFFF"/>
			<stop  offset="1" style="stop-color:#F7C1C0"/>
		</linearGradient>
		<path id="XMLID_153_" fill-rule="evenodd" clip-rule="evenodd" fill="url(#XMLID_119_)" d="M957,1003L957,1003
			C958.4,1003,958.3,1003,957,1003z"/>
		<linearGradient id="XMLID_120_" gradientUnits="userSpaceOnUse" x1="801.7302" y1="860.8414" x2="989.795" y2="860.8414">
			<stop  offset="0" style="stop-color:#FFFFFF"/>
			<stop  offset="1" style="stop-color:#F7C1C0"/>
		</linearGradient>
		<path id="XMLID_151_" fill-rule="evenodd" clip-rule="evenodd" fill="url(#XMLID_120_)" d="M958.5,733c-0.3,3.4-1.5,6.9-3.7,10.4
			c-16.9,18.4-46.1,26.1-64.5,7.7c-8.3-7.1-2-16.9,5.5-24.5c-7.5,0.5-14.8,1.7-21.3,4c-18.9,6.8-33.7,26.5-41.8,44
			c-8.8,19-12.2,40.1-13.6,61c-2.8,42.7-14.7,82.5-25,124c20.8,18.8,54.7,29.5,86.2,35.6c43.3-65.5,82.8-134.3,89.9-214.8
			c1.4-13,5.3-25.7,12-36.4C975.5,739,967.1,735.5,958.5,733z"/>
		<linearGradient id="XMLID_121_" gradientUnits="userSpaceOnUse" x1="889.2587" y1="743.9993" x2="961.4067" y2="743.9993">
			<stop  offset="0" style="stop-color:#FFFFFF"/>
			<stop  offset="1" style="stop-color:#F7C1C0"/>
		</linearGradient>
		<path id="XMLID_156_" fill-rule="evenodd" clip-rule="evenodd" fill="url(#XMLID_121_)" d="M890.2,751.1
			c18.4,18.4,47.6,10.8,64.5-7.7c2.2-3.5,3.4-7,3.7-10.4c-12-3.5-24.5-5.1-33.7-5.8c-8.9-0.7-19.1-1.2-29-0.6
			C888.2,734.2,882,744,890.2,751.1z"/>
		<path id="XMLID_60_" fill-rule="evenodd" clip-rule="evenodd" fill="#4A192A" d="M1124.6,1252.7c0,0,40.1,22.7,58.5,31.7
			c0,0,13.7-6.5,6.3-18.4c0,0-55-55-66-58.6c0,0-11,2.8-22.3,16.2C1101.1,1223.7,1106.6,1247.3,1124.6,1252.7L1124.6,1252.7z"/>
		<linearGradient id="XMLID_122_" gradientUnits="userSpaceOnUse" x1="802.7105" y1="704.5449" x2="991.498" y2="768.3732">
			<stop  offset="0" style="stop-color:#FFFFFF"/>
			<stop  offset="0.414" style="stop-color:#FDC0A3"/>
			<stop  offset="1" style="stop-color:#E65E57"/>
		</linearGradient>
		<path id="XMLID_158_" fill-rule="evenodd" clip-rule="evenodd" fill="url(#XMLID_122_)" d="M887.7,729.8l-0.1,10.4
			c0,0,4.6,14.1,28.2,12.1c5.6-0.5,10.4-1.6,14.4-3c-14-7.7-26.2-18-38.5-28C889.1,726.3,887.7,729.8,887.7,729.8z"/>
		<linearGradient id="XMLID_123_" gradientUnits="userSpaceOnUse" x1="739.1345" y1="648.5995" x2="977.7167" y2="729.2633">
			<stop  offset="0" style="stop-color:#FFFFFF"/>
			<stop  offset="0.414" style="stop-color:#FDC0A3"/>
			<stop  offset="1" style="stop-color:#E65E57"/>
		</linearGradient>
		<path id="XMLID_159_" fill-rule="evenodd" clip-rule="evenodd" fill="url(#XMLID_123_)" d="M891.8,721.3
			c12.3,10,24.5,20.3,38.5,28c13-4.5,18.3-12,18.3-12l9-49.7C925.3,667.2,901.1,703.9,891.8,721.3z"/>
		<linearGradient id="XMLID_124_" gradientUnits="userSpaceOnUse" x1="848.7345" y1="601.8808" x2="876.879" y2="601.8808">
			<stop  offset="0" style="stop-color:#DB5B5E"/>
			<stop  offset="0.5108" style="stop-color:#AB2A29"/>
			<stop  offset="1" style="stop-color:#661C3F"/>
		</linearGradient>
		<path id="XMLID_57_" fill-rule="evenodd" clip-rule="evenodd" fill="url(#XMLID_124_)" d="M852,629.9c0,0-11.2-21.5,7.9-56l17,7.8
			C876.9,581.7,854.6,622,852,629.9L852,629.9z"/>
		<linearGradient id="XMLID_125_" gradientUnits="userSpaceOnUse" x1="849.1493" y1="654.4415" x2="985.067" y2="654.4415">
			<stop  offset="0" style="stop-color:#FFFFFF"/>
			<stop  offset="0.414" style="stop-color:#FDC0A3"/>
			<stop  offset="1" style="stop-color:#E65E57"/>
		</linearGradient>
		<path id="XMLID_157_" fill-rule="evenodd" clip-rule="evenodd" fill="url(#XMLID_125_)" d="M951.4,696.5c-0.8,1.2-1.7,2.5-2.6,3.7
			c-13.4,19.2-26.4,31.1-53.1,29.8c-0.2,0-0.4,0-0.5,0c-27.9-1.4-33.3-8-40.5-33.5c-7.3-25.4-6.6-40.8-2.4-66.5
			c4.3-26.1,18.5-46.8,18.5-46.8s29.2-6.2,64.1-3.9c26.2,2,40.8,16.9,46.8,31.9c0.2,0.6,0.5,1.2,0.7,1.7c0.5,1.3,0.9,2.7,1.2,4
			c0.1,0.5,0.2,0.9,0.3,1.4c0.5,2.3,0.9,4.6,1,6.8C986,643.5,965.8,675.1,951.4,696.5z"/>
		<linearGradient id="XMLID_126_" gradientUnits="userSpaceOnUse" x1="796.6781" y1="622.6164" x2="1011.3357" y2="695.1913">
			<stop  offset="0" style="stop-color:#FFFFFF"/>
			<stop  offset="0.414" style="stop-color:#FDC0A3"/>
			<stop  offset="1" style="stop-color:#E65E57"/>
		</linearGradient>
		<path id="XMLID_59_" fill-rule="evenodd" clip-rule="evenodd" fill="url(#XMLID_126_)" d="M951.4,696.5c-0.8,1.2-1.7,2.5-2.6,3.7
			c-13.4,19.2-26.4,31.1-53.1,29.8c-0.2,0-0.4,0-0.5,0c17.5-11.6,30.4-31.9,35.8-51.5c1.9-6.9,13.4-76.7,10.2-77.6
			c2.2,0.7,20.7,6.3,40.5,10.3c0.2,0.6,0.5,1.2,0.7,1.7c0.5,1.3,0.9,2.7,1.2,4c0.1,0.5,0.2,0.9,0.3,1.4c0.5,2.3,0.9,4.6,1,6.8
			C986,643.5,965.8,675.1,951.4,696.5z"/>
		<linearGradient id="XMLID_127_" gradientUnits="userSpaceOnUse" x1="875.2991" y1="569.213" x2="914.4868" y2="631.4522">
			<stop  offset="0" style="stop-color:#DB5B5E"/>
			<stop  offset="0.5108" style="stop-color:#AB2A29"/>
			<stop  offset="1" style="stop-color:#661C3F"/>
		</linearGradient>
		<path id="XMLID_53_" fill-rule="evenodd" clip-rule="evenodd" fill="url(#XMLID_127_)" d="M925.8,634.7c0,0,1.1-10.2-7.7-13.7
			c-13.1-5.3-21.6-1.7-21.3,2.1c0.3,3.8,4.9,2.7,10.4,3.5C917.4,628,915.1,623.6,925.8,634.7L925.8,634.7z"/>
		<linearGradient id="XMLID_128_" gradientUnits="userSpaceOnUse" x1="841.7665" y1="590.3262" x2="880.9539" y2="652.565">
			<stop  offset="0" style="stop-color:#DB5B5E"/>
			<stop  offset="0.5108" style="stop-color:#AB2A29"/>
			<stop  offset="1" style="stop-color:#661C3F"/>
		</linearGradient>
		<path id="XMLID_52_" fill-rule="evenodd" clip-rule="evenodd" fill="url(#XMLID_128_)" d="M851.5,627.1c0,0,0.5-7.6,6.8-10.1
			c10.6-4.3,16.5,1.7,15.8,5.2c-1,3.5-4,1.5-8,1.1C861.8,623.1,857.2,622.5,851.5,627.1L851.5,627.1z"/>
		<path id="XMLID_51_" opacity="0.502" fill-rule="evenodd" clip-rule="evenodd" fill="#FD9364" d="M864.8,671.2
			c5.4-3.3,19,4.5,17.2,6.8c-2.1,2.3-12.6,2.2-15.4,0.9C863.6,677.4,862.2,672.7,864.8,671.2L864.8,671.2z"/>
		<path id="XMLID_50_" opacity="0.502" fill-rule="evenodd" clip-rule="evenodd" fill="#E85F49" d="M903.7,690.6
			c-2.5,0.5-3.4,1.7-5.9,2.5c-3.3,1.4-8.4,3-11.8,3.3c-5.8,0.5-10.7-0.5-16.4-2c-1.9-0.4-2,1.6-1.2,2.8c6.3,10.4,30.4,3.1,35.2-5.7
			C904.3,691.3,904.4,690.4,903.7,690.6L903.7,690.6z"/>
		<linearGradient id="XMLID_129_" gradientUnits="userSpaceOnUse" x1="796.8232" y1="595.608" x2="940.7391" y2="595.608">
			<stop  offset="0" style="stop-color:#DB5B5E"/>
			<stop  offset="0.5108" style="stop-color:#AB2A29"/>
			<stop  offset="0.6593" style="stop-color:#962630"/>
			<stop  offset="1" style="stop-color:#661C1B"/>
		</linearGradient>
		<path id="XMLID_49_" fill-rule="evenodd" clip-rule="evenodd" fill="url(#XMLID_129_)" d="M989.9,599.5
			c0.5,21.2-8.5,43.5-16.7,62.4c-3.7,8.6-9.2,20.9-20.6,15.2c-1.2-0.6-2.4-1.5-2.9-2.7c-0.4-0.9-0.3-1.9-0.4-2.9
			c-0.1-12.3-4.9-21.4-12.4-30.5c-7-8.5-10.5-19.5-12-30.6c-1.1-8-0.4-14.6-0.4-14.6s-10.5,3.6-35.4-0.1
			c-21-2.9-33.4-14.8-38.9-27.4c-0.2-0.6-0.5-1.2-0.7-1.8c0.2,1.1,0.4,1.7,0.4,1.7c-0.9-2.2-1.7-4.7-2.3-6.9
			c-6.4-26.6,6.5-41.4,26.8-46.5c-6.6,6.6-10.9,14.6-12.3,24.3c6.8-13.1,17.3-22.6,34.1-26.3c-5.5,4.7-9.9,10.2-11.5,17.9
			c7.3-8.1,16.1-13.6,26.3-16.2c-7.2,5.5-16.6,24-18,29c8.5-10.1,19.7-16.3,31.7-12.7c1.5,0.4,3,0.9,4.4,1.4
			c1.6,0.6,3.3,1.2,4.9,1.8c16.9,6.8,33.4,17.6,44.5,32.2C986.5,576.4,989.6,587.8,989.9,599.5z"/>
		<linearGradient id="XMLID_130_" gradientUnits="userSpaceOnUse" x1="856.7789" y1="547.0662" x2="985.0781" y2="547.0662">
			<stop  offset="0" style="stop-color:#DB5B5E"/>
			<stop  offset="0.5108" style="stop-color:#AB2A29"/>
			<stop  offset="0.6593" style="stop-color:#962630"/>
			<stop  offset="1" style="stop-color:#661C1B"/>
		</linearGradient>
		<path id="XMLID_48_" fill-rule="evenodd" clip-rule="evenodd" fill="url(#XMLID_130_)" d="M874.5,514.7L874.5,514.7
			c-6.6,6.5-10.8,14.6-12.3,24.3c6.8-13.1,17.3-22.6,34.1-26.3l0,0c-5.5,4.7-9.9,10.2-11.5,17.9c7.3-8.1,16.1-13.6,26.3-16.2
			c-7.2,5.5-16.6,24-18,29c8.5-10.1,19.7-16.3,31.7-12.7c1.5,0.4,3,0.9,4.4,1.4c1.6,0.6,3.3,1.2,4.9,1.8
			c21.9,8.8,42.3,24.8,50.9,42.4c-10.9,11.7-112.1,1.8-124.2-18.7c-8.3-14.1-4-31.6,12.6-42.5L874.5,514.7z"/>
		<linearGradient id="XMLID_131_" gradientUnits="userSpaceOnUse" x1="832.185" y1="596.3589" x2="871.3725" y2="658.5979">
			<stop  offset="0" style="stop-color:#DB5B5E"/>
			<stop  offset="0.5108" style="stop-color:#AB2A29"/>
			<stop  offset="1" style="stop-color:#661C3F"/>
		</linearGradient>
		<path id="XMLID_47_" fill-rule="evenodd" clip-rule="evenodd" fill="url(#XMLID_131_)" d="M861.5,632c2.3,0.3,3.5,4.6,2.8,9.4
			c-0.7,4.9-3.1,8.6-5.4,8.2c-2.3-0.3-3.5-4.6-2.8-9.4C856.8,635.3,859.2,631.7,861.5,632L861.5,632z"/>
		<linearGradient id="XMLID_132_" gradientUnits="userSpaceOnUse" x1="862.1206" y1="577.5104" x2="901.3082" y2="639.7496">
			<stop  offset="0" style="stop-color:#DB5B5E"/>
			<stop  offset="0.5108" style="stop-color:#AB2A29"/>
			<stop  offset="1" style="stop-color:#661C3F"/>
		</linearGradient>
		<path id="XMLID_46_" fill-rule="evenodd" clip-rule="evenodd" fill="url(#XMLID_132_)" d="M906.6,637.4c2.3,0.3,3.5,4.6,2.8,9.4
			c-0.7,4.9-3.1,8.6-5.4,8.2c-2.3-0.3-3.5-6-2.8-10.9C901.9,639.3,904.3,637.1,906.6,637.4L906.6,637.4z"/>
		<linearGradient id="XMLID_133_" gradientUnits="userSpaceOnUse" x1="983.2829" y1="667.6242" x2="929.4961" y2="666.0874">
			<stop  offset="0" style="stop-color:#FFFFFF"/>
			<stop  offset="0.414" style="stop-color:#FDC0A3"/>
			<stop  offset="1" style="stop-color:#E65E57"/>
		</linearGradient>
		<path id="XMLID_44_" fill-rule="evenodd" clip-rule="evenodd" fill="url(#XMLID_133_)" d="M954.8,686.4c1.2,1.1,2.6,1.8,4.1,2.3
			c7.6-2.1,15.2-8.1,18.7-13.9c5.7-9.6,2.1-22.1-7.9-27.5c-1.6-0.9-3.2-1.5-4.9-1.9c-0.9,0.2-1.7,0.5-2.5,0.8
			c-7.5,6.6-8.4,24.6-10.1,37.1C952.8,684.3,953.7,685.4,954.8,686.4L954.8,686.4z"/>
		<linearGradient id="XMLID_134_" gradientUnits="userSpaceOnUse" x1="647.317" y1="761.7327" x2="678.8209" y2="841.6448">
			<stop  offset="0" style="stop-color:#FFFFFF"/>
			<stop  offset="0.414" style="stop-color:#FDC0A3"/>
			<stop  offset="1" style="stop-color:#E65E57"/>
		</linearGradient>
		<path id="XMLID_63_" fill-rule="evenodd" clip-rule="evenodd" fill="url(#XMLID_134_)" d="M688.9,801.8
			c-4.2-5.6-4.6-11.3-9.3-15.7c1.4,3.3,2.6,5.8,2.6,5.8s-43-36.3-57-21C641.5,787.9,667.3,796.1,688.9,801.8z"/>
		<linearGradient id="XMLID_135_" gradientUnits="userSpaceOnUse" x1="626.3218" y1="713.5776" x2="697.0134" y2="845.74">
			<stop  offset="0" style="stop-color:#FFFFFF"/>
			<stop  offset="0.414" style="stop-color:#FDC0A3"/>
			<stop  offset="1" style="stop-color:#E65E57"/>
		</linearGradient>
		<path id="XMLID_67_" fill-rule="evenodd" clip-rule="evenodd" fill="url(#XMLID_135_)" d="M714.9,805.6c0,0-19.5-29.1-34.2-34.1
			c-7.1-2.5-3.9,7.7-1.1,14.6c4.7,4.4,5.1,10.1,9.3,15.7c-21.6-5.7-47.4-13.9-63.8-30.9c-0.9,1-1.7,2.3-2.4,3.8
			c-8.8,20.1,65.5,51.5,82.8,50.9C712.8,825.3,725,815,714.9,805.6z"/>
		<linearGradient id="XMLID_136_" gradientUnits="userSpaceOnUse" x1="696.0573" y1="818.3513" x2="1001.2997" y2="818.3513">
			<stop  offset="0" style="stop-color:#FFFFFF"/>
			<stop  offset="1" style="stop-color:#F7C1C0"/>
		</linearGradient>
		<path id="XMLID_160_" fill-rule="evenodd" clip-rule="evenodd" fill="url(#XMLID_136_)" d="M998.6,809.5
			C998.6,809.5,998.6,809.6,998.6,809.5c-1,2.7-2.4,4.9-4,6.5c-0.1,0.1-0.2,0.2-0.3,0.3l-109.4,67.8l-24.1,4.7l-164.7-55.7l3.4-12
			l7-24.3l161.4,28.7c56-48.7,74.2-82.2,112.3-77.3c9.6,1.2,16.1,12.9,19.2,26.4C1002.1,787,1002,800.7,998.6,809.5z"/>
		<linearGradient id="XMLID_137_" gradientUnits="userSpaceOnUse" x1="767.6494" y1="686.95" x2="871.3815" y2="862.142">
			<stop  offset="0" style="stop-color:#FFFFFF"/>
			<stop  offset="1" style="stop-color:#F7C1C0"/>
		</linearGradient>
		<path id="XMLID_154_" fill-rule="evenodd" clip-rule="evenodd" fill="url(#XMLID_137_)" d="M978.1,789.7l-105.3,74.1l-173.3-42.6
			l-1-0.2l-2.5,12.2l164.7,55.7l24.1-4.7l109.4-67.8c0.1-0.1,0.2-0.2,0.3-0.3c1-1.1,2.3-3.1,3.7-5.9
			C994.2,800.4,986.9,793.8,978.1,789.7z"/>
		<path id="XMLID_38_" fill-rule="evenodd" clip-rule="evenodd" fill="#2C0B28" d="M585.4,731.9h6.1c3.4,0,6.1,2.8,6.1,6.1v33.7
			h-12.2V731.9z"/>
		<linearGradient id="XMLID_138_" gradientUnits="userSpaceOnUse" x1="569.1801" y1="741.8919" x2="569.1801" y2="781.848">
			<stop  offset="0" style="stop-color:#FFFFFF"/>
			<stop  offset="0.4194" style="stop-color:#FDE063"/>
			<stop  offset="1" style="stop-color:#EB7B5A"/>
		</linearGradient>
		<path id="XMLID_37_" fill-rule="evenodd" clip-rule="evenodd" fill="url(#XMLID_138_)" d="M566.9,748.9h4.5c1.1,0,2,0.9,2,2V768
			c0,1.1-0.9,2-2,2h-4.5c-1.1,0-2-0.9-2-2v-17.2C565,749.8,565.8,748.9,566.9,748.9L566.9,748.9z"/>
		<path id="XMLID_36_" fill-rule="evenodd" clip-rule="evenodd" fill="#2C0B28" d="M560.9,766.2h32.1c2.6,0,4.6,2.1,4.6,4.6v14.9
			c0,2.6-2.1,4.6-4.6,4.6h-32.1c-2.6,0-4.6-2.1-4.6-4.6v-14.9C556.2,768.3,558.3,766.2,560.9,766.2L560.9,766.2z"/>
		<path id="XMLID_35_" fill-rule="evenodd" clip-rule="evenodd" fill="#380D33" d="M560.9,766.2h32.1c2.6,0,4.6,2.1,4.6,4.6v11.5
			c0,2.6-2.1,4.6-4.6,4.6h-32.1c-2.6,0-4.6-2.1-4.6-4.6v-11.5C556.2,768.3,558.3,766.2,560.9,766.2L560.9,766.2z"/>
		<linearGradient id="XMLID_139_" gradientUnits="userSpaceOnUse" x1="465.8276" y1="1226.3788" x2="410.5036" y2="596.3017">
			<stop  offset="0" style="stop-color:#FFFFFF"/>
			<stop  offset="0.414" style="stop-color:#FDC0A3"/>
			<stop  offset="1" style="stop-color:#E65E57"/>
		</linearGradient>
		<path id="XMLID_34_" fill-rule="evenodd" clip-rule="evenodd" fill="url(#XMLID_139_)" d="M484.1,896.9c0,0-4.5,89.8-6,98.9
			c-1.4,9.1-45.4,170.4-42.6,235.3H419c-2-80,2.4-160,13.2-240c0,0-7.4-91.4-1.8-108.3C436.1,865.9,470,830.7,484.1,896.9
			L484.1,896.9z"/>
		<linearGradient id="XMLID_140_" gradientUnits="userSpaceOnUse" x1="501.7946" y1="1324.63" x2="404.9779" y2="786.7612">
			<stop  offset="0" style="stop-color:#FFFFFF"/>
			<stop  offset="0.414" style="stop-color:#FDC0A3"/>
			<stop  offset="1" style="stop-color:#E65E57"/>
		</linearGradient>
		<path id="XMLID_33_" fill-rule="evenodd" clip-rule="evenodd" fill="url(#XMLID_140_)" d="M484.1,896.9c0,0-4.5,89.8-6,98.9
			c-1.4,9.1-45.4,170.4-42.6,235.3h-9.9c-2-80,2.4-160,13.2-240c0,0-7.4-91.4-1.8-108.3c2.9-8.6,13-21.9,24.2-24.3
			C470,860.5,478.6,870.9,484.1,896.9L484.1,896.9z"/>
		<linearGradient id="XMLID_141_" gradientUnits="userSpaceOnUse" x1="416.3384" y1="1250.337" x2="497.6102" y2="1250.337">
			<stop  offset="0" style="stop-color:#DB5B5E"/>
			<stop  offset="0.5108" style="stop-color:#AB2A29"/>
			<stop  offset="0.6593" style="stop-color:#962630"/>
			<stop  offset="1" style="stop-color:#661C1B"/>
		</linearGradient>
		<path id="XMLID_32_" fill-rule="evenodd" clip-rule="evenodd" fill="url(#XMLID_141_)" d="M435.5,1231.1c0,0,29.3,23.1,59.3,23.1
			c0,0,8.3,11.8-3.8,13.9c-12.1,2.1-48.8,2.8-55.5-4.8c-6.7-7.6-6.7-7.6-6.7-7.6l0,12.3c0,0-8.6-1-9.8-3.2c-6.1-10.7,0-33.8,0-33.8
			H435.5z"/>
		<path id="XMLID_31_" fill-rule="evenodd" clip-rule="evenodd" fill="#FDC0A3" d="M435.5,1231.1c0,0,16.6,13.1,37.6,19.6
			c-20.8,10-44.3,2.1-54.1-19.6l14.3-1.1L435.5,1231.1z"/>
		<path id="XMLID_30_" fill-rule="evenodd" clip-rule="evenodd" fill="#EAA182" d="M425.7,1241.6c-2.6-3-4.8-6.5-6.6-10.5l6.6-0.5
			V1241.6z"/>
		<linearGradient id="XMLID_142_" gradientUnits="userSpaceOnUse" x1="645.155" y1="570.0062" x2="440.7649" y2="608.4255">
			<stop  offset="0" style="stop-color:#FFFFFF"/>
			<stop  offset="0.414" style="stop-color:#FDC0A3"/>
			<stop  offset="1" style="stop-color:#E65E57"/>
		</linearGradient>
		<path id="XMLID_29_" fill-rule="evenodd" clip-rule="evenodd" fill="url(#XMLID_142_)" d="M473.9,544.7l72,73.7
			c-2.4-23.6-6.6-46.9-12.9-70c-13.8-2.3-25.7-6.8-31.1-17.2c-4.5-8.7-28.4-16.6-20.5-17.5c28,2.1,38.9,3.6,60.4,25.3
			c35.9,89.7,43.9,134.6,34.5,130.5c-41.3-17.6-73.2-45.9-109.1-81.2L473.9,544.7z"/>
		<linearGradient id="XMLID_143_" gradientUnits="userSpaceOnUse" x1="571.3293" y1="576.5447" x2="449.9241" y2="608.817">
			<stop  offset="0" style="stop-color:#FFFFFF"/>
			<stop  offset="0.414" style="stop-color:#FDC0A3"/>
			<stop  offset="1" style="stop-color:#E65E57"/>
		</linearGradient>
		<path id="XMLID_28_" fill-rule="evenodd" clip-rule="evenodd" fill="url(#XMLID_143_)" d="M473.9,544.7l72,73.7
			c-2.4-23.6-6.6-46.9-12.9-70c-13.8-2.3-25.7-6.8-31.1-17.2c-4.5-8.7-28.4-16.6-20.5-17.5c28,2.1,38.9,3.6,60.4,25.3
			c24.5,61.1,36,101.5,37.9,119.7c-0.5,2.6-1.6,3.5-3.4,2.7c-40.9-17.4-72.5-45.3-108-80.1L473.9,544.7z"/>
		<linearGradient id="XMLID_144_" gradientUnits="userSpaceOnUse" x1="405.9867" y1="1231.6333" x2="350.6626" y2="601.5562">
			<stop  offset="0" style="stop-color:#FFFFFF"/>
			<stop  offset="0.414" style="stop-color:#FDC0A3"/>
			<stop  offset="1" style="stop-color:#E65E57"/>
		</linearGradient>
		<path id="XMLID_27_" fill-rule="evenodd" clip-rule="evenodd" fill="url(#XMLID_144_)" d="M423.8,896.9c0,0-4.5,89.8-6,98.9
			c-1.4,9.1-45.4,170.4-42.6,235.3h-16.5c-2-80,2.4-160,13.2-240c0,0-7.4-91.4-1.8-108.3C375.8,865.9,409.7,830.7,423.8,896.9
			L423.8,896.9z"/>
		<linearGradient id="XMLID_145_" gradientUnits="userSpaceOnUse" x1="443.3848" y1="1335.1438" x2="346.5681" y2="797.275">
			<stop  offset="0" style="stop-color:#FFFFFF"/>
			<stop  offset="0.414" style="stop-color:#FDC0A3"/>
			<stop  offset="1" style="stop-color:#E65E57"/>
		</linearGradient>
		<path id="XMLID_26_" fill-rule="evenodd" clip-rule="evenodd" fill="url(#XMLID_145_)" d="M423.8,896.9c0,0-4.5,89.8-6,98.9
			c-1.4,9.1-45.4,170.4-42.6,235.3h-9.9c-2-80,2.4-160,13.2-240c0,0-7.4-91.4-1.8-108.3c2.9-8.6,13-21.9,24.2-24.3
			C409.7,860.5,418.3,870.9,423.8,896.9L423.8,896.9z"/>
		<linearGradient id="XMLID_146_" gradientUnits="userSpaceOnUse" x1="356.0363" y1="1250.337" x2="437.308" y2="1250.337">
			<stop  offset="0" style="stop-color:#DB5B5E"/>
			<stop  offset="0.5108" style="stop-color:#AB2A29"/>
			<stop  offset="0.6593" style="stop-color:#962630"/>
			<stop  offset="1" style="stop-color:#661C1B"/>
		</linearGradient>
		<path id="XMLID_25_" fill-rule="evenodd" clip-rule="evenodd" fill="url(#XMLID_146_)" d="M375.2,1231.1c0,0,29.3,23.1,59.3,23.1
			c0,0,8.3,11.8-3.8,13.9c-12.1,2.1-48.8,2.8-55.5-4.8c-6.7-7.6-6.7-7.6-6.7-7.6l0,12.3c0,0-8.6-1-9.8-3.2c-6.1-10.7,0-33.8,0-33.8
			H375.2z"/>
		<path id="XMLID_24_" fill-rule="evenodd" clip-rule="evenodd" fill="#FDC0A3" d="M375.2,1231.1c0,0,16.6,13.1,37.6,19.6
			c-20.8,10-44.3,2.1-54.1-19.6l14.3-1.1L375.2,1231.1z"/>
		<path id="XMLID_23_" fill-rule="evenodd" clip-rule="evenodd" fill="#EAA182" d="M365.4,1241.6c-2.6-3-4.8-6.5-6.6-10.5l6.6-0.5
			V1241.6z"/>
		<linearGradient id="XMLID_147_" gradientUnits="userSpaceOnUse" x1="502.7869" y1="420.5814" x2="438.243" y2="904.6629">
			<stop  offset="0" style="stop-color:#DB5B5E"/>
			<stop  offset="0.5108" style="stop-color:#AB2A29"/>
			<stop  offset="0.6593" style="stop-color:#962630"/>
			<stop  offset="1" style="stop-color:#661C1B"/>
		</linearGradient>
		<path id="XMLID_22_" fill-rule="evenodd" clip-rule="evenodd" fill="url(#XMLID_147_)" d="M473.9,544.7c1.7,1.6,4,16.5,9.8,29.8
			c6.5,15,17.9,34.2-1.8,46.6c-25.4,15.9-0.5,69.4-0.5,69.4s48.7,107.2,47.3,236.5c0,0-4.7,37.4,18.3,57.4
			c2.5,2.2-129.4,53.2-224.7,13.2c0,0-12.6-236,70.5-314c0,0-25.2-86.1-28-122.7C362.1,524.2,462.2,533.7,473.9,544.7L473.9,544.7z"
			/>
		<linearGradient id="XMLID_148_" gradientUnits="userSpaceOnUse" x1="519.2775" y1="565.3531" x2="391.726" y2="1040.2148">
			<stop  offset="0" style="stop-color:#DB5B5E"/>
			<stop  offset="0.5108" style="stop-color:#AB2A29"/>
			<stop  offset="0.6593" style="stop-color:#962630"/>
			<stop  offset="1" style="stop-color:#661C1B"/>
		</linearGradient>
		<path id="XMLID_21_" fill-rule="evenodd" clip-rule="evenodd" fill="url(#XMLID_148_)" d="M473.9,544.7c1.8,1.6,4,16.5,9.8,29.8
			c6.5,15,17.9,34.2-1.8,46.6c-25.4,15.9-0.5,69.4-0.5,69.4s48.7,107.2,47.3,236.5c0,0-4.7,37.4,18.3,57.4
			c1.8,1.5-61.1,26.5-131.7,28.4c-26.1-0.7-52.7-5-76.9-15.1c0,0-12.6-236,70.5-314c0,0-25.2-86.1-28-122.7
			c-1.4-17.8,21.5-24.7,46.8-25.9C449.3,535.9,469.1,540.2,473.9,544.7L473.9,544.7z"/>
		<linearGradient id="XMLID_149_" gradientUnits="userSpaceOnUse" x1="388.1247" y1="679.8784" x2="481.4581" y2="679.8784">
			<stop  offset="0" style="stop-color:#FFFFFF"/>
			<stop  offset="1" style="stop-color:#F7C1C0"/>
		</linearGradient>
		<path id="XMLID_20_" fill-rule="evenodd" clip-rule="evenodd" fill="url(#XMLID_149_)" d="M475,673.1c3,10,6.4,17.4,6.4,17.4
			c-32.1,5.3-61.4,2.4-88.5-6.9c0,0-1.9-6.7-4.8-17C416.4,673.8,445.2,677.8,475,673.1L475,673.1z"/>
		<linearGradient id="XMLID_150_" gradientUnits="userSpaceOnUse" x1="405.2901" y1="681.8469" x2="481.4581" y2="681.8469">
			<stop  offset="0" style="stop-color:#FFFFFF"/>
			<stop  offset="1" style="stop-color:#F7C1C0"/>
		</linearGradient>
		<path id="XMLID_19_" fill-rule="evenodd" clip-rule="evenodd" fill="url(#XMLID_150_)" d="M475,673.1l0.1,0.5l0,0
			c0.1,0.3,0.2,0.6,0.3,0.9l0,0.1c1.7,5.3,3.4,9.8,4.6,12.6l0,0l0.1,0.2l0.1,0.2l0.1,0.2l0,0l0.2,0.4l0.1,0.2l0.2,0.4l0.1,0.2
			l0.1,0.3l0.1,0.1l0,0.1l0,0.1l0.1,0.1l0.1,0.1l0,0l0,0.1l0,0.1l0,0.1l0,0l0,0.1l0,0.1l0,0l0,0l0,0l0,0l0,0l0,0l0,0l0,0
			c-27.3,4.5-52.6,3.1-76.2-3.1c1.2-1.3,2.5-2.5,3.8-3.7c0,0-1.5-5-3.7-13.1C428.1,675.1,451.2,676.9,475,673.1L475,673.1z"/>
		<linearGradient id="XMLID_155_" gradientUnits="userSpaceOnUse" x1="462.4066" y1="512.9387" x2="377.8844" y2="563.652">
			<stop  offset="0" style="stop-color:#FFFFFF"/>
			<stop  offset="0.414" style="stop-color:#FDC0A3"/>
			<stop  offset="1" style="stop-color:#E65E57"/>
		</linearGradient>
		<path id="XMLID_18_" fill-rule="evenodd" clip-rule="evenodd" fill="url(#XMLID_155_)" d="M451.3,517.6c0,0-6.4,21.4-4.4,32.7
			c0,0-9.7,14.2-22.7,0.1c-12.9-14.2,3.9-46.5,3.9-46.5C428.1,503.9,446.8,500,451.3,517.6L451.3,517.6z"/>
		<linearGradient id="XMLID_161_" gradientUnits="userSpaceOnUse" x1="445.086" y1="569.0601" x2="429.2061" y2="478.3908">
			<stop  offset="0" style="stop-color:#FFFFFF"/>
			<stop  offset="0.414" style="stop-color:#FDC0A3"/>
			<stop  offset="1" style="stop-color:#E65E57"/>
		</linearGradient>
		<path id="XMLID_17_" fill-rule="evenodd" clip-rule="evenodd" fill="url(#XMLID_161_)" d="M451.3,517.6c0,0-2,6.6-3.4,14.5
			c-9.1-2.3-18.6-6.1-26.5-10.7c2.6-9.6,6.7-17.5,6.7-17.5C428.1,503.9,446.8,500,451.3,517.6L451.3,517.6z"/>
		<linearGradient id="XMLID_162_" gradientUnits="userSpaceOnUse" x1="330.5547" y1="377.4258" x2="429.6835" y2="377.4258">
			<stop  offset="0" style="stop-color:#DB5B5E"/>
			<stop  offset="0.5108" style="stop-color:#AB2A29"/>
			<stop  offset="0.6593" style="stop-color:#962630"/>
			<stop  offset="1" style="stop-color:#661C1B"/>
		</linearGradient>
		<path id="XMLID_16_" fill-rule="evenodd" clip-rule="evenodd" fill="url(#XMLID_162_)" d="M429.7,377.4
			c0-27.4-22.2-49.6-49.6-49.6c-27.4,0-49.6,22.2-49.6,49.6c0,27.4,22.2,49.6,49.6,49.6C407.5,427,429.7,404.8,429.7,377.4
			L429.7,377.4z"/>
		<linearGradient id="XMLID_163_" gradientUnits="userSpaceOnUse" x1="524.3669" y1="445.5421" x2="261.5792" y2="462.4465">
			<stop  offset="0" style="stop-color:#FFFFFF"/>
			<stop  offset="0.414" style="stop-color:#FDC0A3"/>
			<stop  offset="1" style="stop-color:#E65E57"/>
		</linearGradient>
		<path id="XMLID_15_" fill-rule="evenodd" clip-rule="evenodd" fill="url(#XMLID_163_)" d="M411.4,509.8
			c-33.4-37.9-40.7-109.6-9-129.4c31.7-19.5,73.1-9.7,92.9,21.9c19.5,31.7,10.1,99.5-13.9,122.5
			C472.3,537.3,429.9,526.5,411.4,509.8L411.4,509.8z"/>
		<linearGradient id="XMLID_164_" gradientUnits="userSpaceOnUse" x1="417.1077" y1="467.5368" x2="304.9462" y2="482.9014">
			<stop  offset="0" style="stop-color:#FFFFFF"/>
			<stop  offset="0.414" style="stop-color:#FDC0A3"/>
			<stop  offset="1" style="stop-color:#E65E57"/>
		</linearGradient>
		<path id="XMLID_14_" fill-rule="evenodd" clip-rule="evenodd" fill="url(#XMLID_164_)" d="M395.4,490.3c-9,4.9-24.7-2.1-29.6-11.1
			c-4.9-9-1.4-20.2,7.7-25.1c9-4.9,20.2-1.4,25.1,7.7C403.1,470.5,404.5,485.4,395.4,490.3L395.4,490.3z"/>
		<linearGradient id="XMLID_165_" gradientUnits="userSpaceOnUse" x1="417.2361" y1="409.3214" x2="534.1796" y2="409.3214">
			<stop  offset="0" style="stop-color:#DB5B5E"/>
			<stop  offset="0.5108" style="stop-color:#AB2A29"/>
			<stop  offset="0.6593" style="stop-color:#962630"/>
			<stop  offset="1" style="stop-color:#661C1B"/>
		</linearGradient>
		<path id="XMLID_65_" fill-rule="evenodd" clip-rule="evenodd" fill="url(#XMLID_165_)" d="M412.3,379.2c23-4.6,46.9-4.9,69.6,1
			c-5.1-4.3-11.6-8.4-20.1-11.7c-20.9-8-41.4-10.1-57.4-5.9c-12.5,3.1-22.3,9.7-27.8,19.5c-13.2,22.9-13.9,51.7-8.4,76.1
			C367.6,423.7,376.5,387.6,412.3,379.2z"/>
		<linearGradient id="XMLID_166_" gradientUnits="userSpaceOnUse" x1="368.2128" y1="421.0296" x2="499.7916" y2="421.0296">
			<stop  offset="0" style="stop-color:#DB5B5E"/>
			<stop  offset="0.5108" style="stop-color:#AB2A29"/>
			<stop  offset="0.6593" style="stop-color:#962630"/>
			<stop  offset="1" style="stop-color:#661C1B"/>
		</linearGradient>
		<path id="XMLID_68_" fill-rule="evenodd" clip-rule="evenodd" fill="url(#XMLID_166_)" d="M481.9,380.3c-22.8-5.9-46.6-5.6-69.6-1
			c-35.8,8.4-44.7,44.5-44,78.9c0,0,0,0.1,0,0.1c0,0,4.5-7,16-6.3c0,0,11.5,2.1,16,14.3c0,0-2.4-24.4,9-46.6
			c6.3-11.8,18.4-19.8,30.6-19.8c10.8,0,21.6,5.9,28.9,19.8c0,0,16.7-43.5,31-8.4C499.8,411.3,498.7,394.5,481.9,380.3z"/>
		<linearGradient id="XMLID_167_" gradientUnits="userSpaceOnUse" x1="470.6673" y1="424.4108" x2="422.5153" y2="473.075">
			<stop  offset="0" style="stop-color:#FFFFFF"/>
			<stop  offset="0.414" style="stop-color:#FDC0A3"/>
			<stop  offset="1" style="stop-color:#E65E57"/>
		</linearGradient>
		<path id="XMLID_12_" fill-rule="evenodd" clip-rule="evenodd" fill="url(#XMLID_167_)" d="M452.8,460.7c0,0,0-17.4-5.2-19.5
			c-14.6-4.2-23.3,10.4-19.1,23.3C428.5,464.5,439.6,445.8,452.8,460.7L452.8,460.7z"/>
		<linearGradient id="XMLID_168_" gradientUnits="userSpaceOnUse" x1="509.786" y1="433.2144" x2="469.3177" y2="476.7564">
			<stop  offset="0" style="stop-color:#FFFFFF"/>
			<stop  offset="0.414" style="stop-color:#FDC0A3"/>
			<stop  offset="1" style="stop-color:#E65E57"/>
		</linearGradient>
		<path id="XMLID_11_" fill-rule="evenodd" clip-rule="evenodd" fill="url(#XMLID_168_)" d="M505.7,453.4c0,0,0.7-12.5-1.4-14.6
			c-3.5-4.2-21.2-5.6-20.5,18.4C483.8,457.2,494.9,444,505.7,453.4L505.7,453.4z"/>
		<linearGradient id="XMLID_169_" gradientUnits="userSpaceOnUse" x1="503.499" y1="377.4663" x2="427.6852" y2="477.8684">
			<stop  offset="0" style="stop-color:#DB5B5E"/>
			<stop  offset="0.5108" style="stop-color:#AB2A29"/>
			<stop  offset="0.6593" style="stop-color:#962630"/>
			<stop  offset="1" style="stop-color:#661C1B"/>
		</linearGradient>
		<path id="XMLID_10_" fill-rule="evenodd" clip-rule="evenodd" fill="url(#XMLID_169_)" d="M428.5,464.5c0,0,5.6-5.6,12.2-5.6
			c6.6-0.3,12.2,2.8,12.2,2.8s-0.7-11.5-12.9-10.1C427.8,453.1,428.5,464.5,428.5,464.5L428.5,464.5z"/>
		<linearGradient id="XMLID_170_" gradientUnits="userSpaceOnUse" x1="535.5684" y1="401.6816" x2="459.7544" y2="502.084">
			<stop  offset="0" style="stop-color:#DB5B5E"/>
			<stop  offset="0.5108" style="stop-color:#AB2A29"/>
			<stop  offset="0.6593" style="stop-color:#962630"/>
			<stop  offset="1" style="stop-color:#661C1B"/>
		</linearGradient>
		<path id="XMLID_9_" fill-rule="evenodd" clip-rule="evenodd" fill="url(#XMLID_170_)" d="M506.1,456.5c0,0-4.5-4.5-11.1-3.1
			s-11.1,5.6-11.1,5.6s-1-10.4,11.1-11.8C507.1,445.4,506.1,456.5,506.1,456.5L506.1,456.5z"/>
		<linearGradient id="XMLID_171_" gradientUnits="userSpaceOnUse" x1="525.7592" y1="354.9601" x2="428.9427" y2="435.8966">
			<stop  offset="0" style="stop-color:#DB5B5E"/>
			<stop  offset="0.5108" style="stop-color:#AB2A29"/>
			<stop  offset="0.6593" style="stop-color:#962630"/>
			<stop  offset="1" style="stop-color:#661C1B"/>
		</linearGradient>
		<path id="XMLID_8_" fill-rule="evenodd" clip-rule="evenodd" fill="url(#XMLID_171_)" d="M414.5,446.4c0,0,1.7-14.3,15.3-21.2
			c13.9-7,21.2-0.7,19.8,3.1c-1,3.8-4.9,3.1-10.8,2.8C433.3,431.1,420.8,434.3,414.5,446.4L414.5,446.4z"/>
		<linearGradient id="XMLID_172_" gradientUnits="userSpaceOnUse" x1="550.1803" y1="384.1726" x2="453.3636" y2="465.1093">
			<stop  offset="0" style="stop-color:#DB5B5E"/>
			<stop  offset="0.5108" style="stop-color:#AB2A29"/>
			<stop  offset="0.6593" style="stop-color:#962630"/>
			<stop  offset="1" style="stop-color:#661C1B"/>
		</linearGradient>
		<path id="XMLID_7_" fill-rule="evenodd" clip-rule="evenodd" fill="url(#XMLID_172_)" d="M505.7,439.1c0,0,3.8-11.5-5.9-16.7
			c-10.1-5.2-18.8-0.3-17.7,2.4c1.4,3.8,5.6,1.7,11.1,2.8C499.8,429.1,504.3,429.4,505.7,439.1L505.7,439.1z"/>
		<path id="XMLID_6_" fill-rule="evenodd" clip-rule="evenodd" fill="#EC8576" d="M477.8,506.2c0,0-4.2-2.9-22.6-0.3
			c0,0,2.2,7.4,10.4,8.4C474,515.2,477.8,506.2,477.8,506.2L477.8,506.2z"/>
		<linearGradient id="XMLID_173_" gradientUnits="userSpaceOnUse" x1="582.1409" y1="664.5228" x2="294.7646" y2="652.2283">
			<stop  offset="0" style="stop-color:#FFFFFF"/>
			<stop  offset="0.414" style="stop-color:#FDC0A3"/>
			<stop  offset="1" style="stop-color:#E65E57"/>
		</linearGradient>
		<path id="XMLID_5_" fill-rule="evenodd" clip-rule="evenodd" fill="url(#XMLID_173_)" d="M361.1,567.6
			c9.9,51.2,42.9,101.2,85.3,144.6c5,5.1,11.7,10.3,34,13.8l108.4,17c22.1,4.5,30.2,41.1,61,29.7c-19.6-19.9-36.3-35.7-46.7-39.5
			c-54.3-19.7-134.5-33.5-141-41.9c-22.4-32.2-37.4-55.1-44.6-76.2c-8.8-25.6-10.6-46-33.9-63.5
			C369.6,541.2,357.9,551.3,361.1,567.6L361.1,567.6z"/>
		<linearGradient id="XMLID_174_" gradientUnits="userSpaceOnUse" x1="572.3646" y1="684.8486" x2="202.0042" y2="557.2972">
			<stop  offset="0" style="stop-color:#FFFFFF"/>
			<stop  offset="0.414" style="stop-color:#FDC0A3"/>
			<stop  offset="1" style="stop-color:#E65E57"/>
		</linearGradient>
		<path id="XMLID_4_" fill-rule="evenodd" clip-rule="evenodd" fill="url(#XMLID_174_)" d="M649.8,772.9
			c-18.5-18.7-36.7-35.8-46.7-39.5c-54.3-19.7-134.5-33.5-141-41.9c-22.4-32.2-37.4-55.1-44.6-76.2c-8.8-25.6-10.6-46-33.9-63.5
			c-6.9-5.2-13.2-5.4-17.5-2.3c-1.9,3.6-2.6,8.4-1.5,14c9.9,51.2,42.9,101.2,85.3,144.6c5,5.1,11.8,9.9,34,13.8l110.9,19.5
			C615.5,745.6,623.9,777.6,649.8,772.9L649.8,772.9z"/>
		<linearGradient id="XMLID_175_" gradientUnits="userSpaceOnUse" x1="508.5218" y1="381.259" x2="432.708" y2="481.6612">
			<stop  offset="0" style="stop-color:#DB5B5E"/>
			<stop  offset="0.5108" style="stop-color:#AB2A29"/>
			<stop  offset="0.6593" style="stop-color:#962630"/>
			<stop  offset="1" style="stop-color:#661C1B"/>
		</linearGradient>
		<path id="XMLID_3_" fill-rule="evenodd" clip-rule="evenodd" fill="url(#XMLID_175_)" d="M446.6,455.6c2.5,0,4.6,3.4,4.6,7.7
			c0,4.2-2.1,7.7-4.6,7.7c-2.5,0-4.6-3.4-4.6-7.7C442,459,444.1,455.6,446.6,455.6L446.6,455.6z"/>
		<linearGradient id="XMLID_176_" gradientUnits="userSpaceOnUse" x1="534.7547" y1="401.0678" x2="458.9411" y2="501.4697">
			<stop  offset="0" style="stop-color:#DB5B5E"/>
			<stop  offset="0.5108" style="stop-color:#AB2A29"/>
			<stop  offset="0.6593" style="stop-color:#962630"/>
			<stop  offset="1" style="stop-color:#661C1B"/>
		</linearGradient>
		<path id="XMLID_2_" fill-rule="evenodd" clip-rule="evenodd" fill="url(#XMLID_176_)" d="M490.9,451.5c2.5,0,4.6,3.4,4.6,7.7
			c0,4.2-2.1,7.7-4.6,7.7c-2.5,0-4.6-3.4-4.6-7.7C486.3,454.9,488.4,451.5,490.9,451.5L490.9,451.5z"/>
	</g>
	
		<linearGradient id="XMLID_177_" gradientUnits="userSpaceOnUse" x1="1153.5236" y1="563.1815" x2="1231.5978" y2="563.1815" gradientTransform="matrix(0.9452 -0.3264 -0.3264 -0.9452 194.0846 1155.4569)">
		<stop  offset="0" style="stop-color:#FFFFFF"/>
		<stop  offset="1" style="stop-color:#E43433"/>
	</linearGradient>
	<path id="XMLID_377_" fill="url(#XMLID_177_)" d="M1106.9,250.2c-5.6-3.7-10.6-10.1-8.8-16.6c7.3-24.8,58.7-17.7,76.2-12.8
		C1159.1,244.2,1138.8,271.5,1106.9,250.2z"/>
	<g id="XMLID_380_">
		<defs>
			<rect id="XMLID_379_" x="773.1" y="0" width="626.9" height="285.5"/>
		</defs>
		<clipPath id="XMLID_178_">
			<use xlink:href="#XMLID_379_"  overflow="visible"/>
		</clipPath>
		<g id="XMLID_369_" clip-path="url(#XMLID_178_)">
			<linearGradient id="XMLID_179_" gradientUnits="userSpaceOnUse" x1="838.6903" y1="96.048" x2="1562.1509" y2="96.048">
				<stop  offset="0" style="stop-color:#DB5B5E"/>
				<stop  offset="0.5108" style="stop-color:#AB2A29"/>
				<stop  offset="0.6593" style="stop-color:#962630"/>
				<stop  offset="1" style="stop-color:#661C1B"/>
			</linearGradient>
			<path id="XMLID_270_" fill="url(#XMLID_179_)" d="M1589.1,213.6c-14.4-3-28.9-3.6-43.3-4.5c2.1-3.1,3-7,1.8-11.2
				c-1.9-6.8-10.4-12.9-17.6-10c-11.6,4.6-23.7,8-36.1,10.5c-23.6-10.1-46.9-23.2-66.8-39.3c-41-33.1-65.2-82.2-77.4-132.6
				c-7-28.8-10-58.3-10.3-87.9c-0.2-18.4-28.8-18.4-28.6,0c0.5,57.4,11.2,115.7,37.7,167.1c12.8,24.8,29.8,48.5,50.7,67.2
				c13,11.6,27.3,21.9,42.4,30.8c-16.2,0.3-32.4-0.4-48.1-1.6c-2-0.2-3.9-0.3-5.9-0.5c-0.3,0-0.5-0.1-0.7-0.1
				c-0.9-0.1-1.7-0.3-2.6-0.4c-4.2-0.7-8.3-1.5-12.4-2.5c-8.9-2.1-17.6-4.8-26.2-7.9c-18-6.4-35.3-15-51.1-25.6
				c-8.2-5.5-15.8-11.6-22.6-18.8c-3.5-3.7-5.5-6.1-7.9-9.8c-1.1-1.7-2.2-3.5-3.1-5.3c-1.3-2.5-1.8-3.7-2.2-4.7
				c-1.3-3.4-3.5-6.3-6.4-8.2c-10-17.9-18.8-36.6-26.3-55.7c-13.2-34-22.8-69.2-30.3-104.8c-3.8-18-31.4-10.4-27.6,7.6
				c11.8,56.1,29.3,111.3,56.4,161.8c-0.3-0.2-0.5-0.4-0.8-0.7c-22.8-18.9-42.6-39.6-59.3-64c-20.2-29.5-38.4-60.3-61-88.1
				c-4.9-6-15.2-5.1-20.2,0c-5.9,5.9-4.9,14.2,0,20.2c20.2,24.9,36.4,52.7,54.3,79.1c17.8,26.3,38,49.4,62.3,69.9
				c6.5,5.5,13.1,11,19.8,16.4c-76.5,3.7-153.6-16.6-221.7-52.7c-6.8-6.1-13.4-15.4-18.3-24.2c-6.7-12-11.6-24.8-15.8-37.8
				c-8.2-25.7-13.3-52.3-16.9-78.9c-1-7.7-10.9-11.8-17.6-10c-8.3,2.3-11,9.9-10,17.6c3.9,28.6,9.5,57.1,18.7,84.5
				c1.8,5.2,3.6,10.3,5.7,15.4c-13.3-9.4-26.1-19.5-38.3-30.1c-26.6-23.2-50.9-49.3-71.6-78c-4.5-6.3-12.4-9.3-19.6-5.1
				c-6.2,3.6-9.7,13.3-5.1,19.6c45.1,62.7,105.2,114.7,173.4,151.2c1.1,0.9,2.2,1.8,3.3,2.7c1.7,1.3,3.7,1.9,5.7,2.1
				c49.6,25.3,103.3,42.3,158.6,49.4c33.9,4.3,67.8,4.2,101.6,0.1c6.4,4.9,12.8,9.7,19.3,14.4c5.3,3.9,10.7,7.6,16.1,11.2
				c5.2,4.4,10.8,8.5,16.7,12.2c9.8,6.1,20.2,11,30.9,15.1c5.5,2.6,11,5.1,16.6,7.5c31.5,13.2,64.9,21.2,99.2,21.6
				c8.1,0.1,12.6-5.3,13.6-11.5c5,0,10,0.1,15,0.1c16.3,0,18.2-22.4,5.6-27.5c1.9-0.3,3.8-0.5,5.7-0.8c11.1,4.2,22.4,7.3,34.6,8.7
				c18.7,2.2,37.7,0.9,56.2,4.8c7.6,1.6,15.5-2.2,17.6-10C1601,224.1,1596.7,215.2,1589.1,213.6z"/>
			<linearGradient id="XMLID_180_" gradientUnits="userSpaceOnUse" x1="958.6595" y1="164.535" x2="1036.731" y2="164.535">
				<stop  offset="0" style="stop-color:#FFFFFF"/>
				<stop  offset="1" style="stop-color:#E43433"/>
			</linearGradient>
			<path id="XMLID_342_" fill="url(#XMLID_180_)" d="M963.4,159.1c-4.1,5.3-6.8,13.1-2.9,18.5c15,21.1,61.3-2.4,76.2-12.8
				C1014.7,147.7,986.6,128.6,963.4,159.1z"/>
			
				<linearGradient id="XMLID_181_" gradientUnits="userSpaceOnUse" x1="1124.7699" y1="630.8998" x2="1202.8389" y2="630.8998" gradientTransform="matrix(-0.3228 0.9465 -0.9465 -0.3228 2221.7529 -881.2052)">
				<stop  offset="0" style="stop-color:#FFFFFF"/>
				<stop  offset="1" style="stop-color:#E43433"/>
			</linearGradient>
			<path id="XMLID_378_" fill="url(#XMLID_181_)" d="M1265.2-14c-3.7-5.6-10.2-10.6-16.6-8.7c-24.8,7.4-17.5,58.8-12.5,76.2
				C1259.3,38.2,1286.5,17.8,1265.2-14z"/>
			<linearGradient id="XMLID_182_" gradientUnits="userSpaceOnUse" x1="1261.0846" y1="101.2054" x2="1339.1561" y2="101.2054">
				<stop  offset="0" style="stop-color:#FFFFFF"/>
				<stop  offset="1" style="stop-color:#E43433"/>
			</linearGradient>
			<path id="XMLID_376_" fill="url(#XMLID_182_)" d="M1265.8,95.8c-4.1,5.3-6.8,13.1-2.9,18.5c15,21.1,61.3-2.4,76.2-12.8
				C1317.2,84.4,1289.1,65.3,1265.8,95.8z"/>
			
				<linearGradient id="XMLID_183_" gradientUnits="userSpaceOnUse" x1="1124.0498" y1="12.7769" x2="1202.1202" y2="12.7769" gradientTransform="matrix(0.9107 -0.4131 0.4131 0.9107 7.5507 504.6781)">
				<stop  offset="0" style="stop-color:#FFFFFF"/>
				<stop  offset="1" style="stop-color:#E43433"/>
			</linearGradient>
			<path id="XMLID_373_" fill="url(#XMLID_183_)" d="M1038.6,45c-1.5,6.5-0.8,14.7,5,18c22.3,13,54.8-27.5,64.1-43.1
				C1080.6,13.5,1047.1,7.7,1038.6,45z"/>
			
				<linearGradient id="XMLID_185_" gradientUnits="userSpaceOnUse" x1="946.8924" y1="314.0709" x2="1012.6036" y2="314.0709" gradientTransform="matrix(0.5766 0.817 0.817 -0.5766 278.4156 -494.0227)">
				<stop  offset="0" style="stop-color:#FFFFFF"/>
				<stop  offset="1" style="stop-color:#E43433"/>
			</linearGradient>
			<path id="XMLID_374_" fill="url(#XMLID_185_)" d="M1079.5,104.4c1.7-5.4,5.7-11,11.3-11c21.8,0.1,28.1,43.3,28.2,58.6
				C1096.7,145.2,1069.9,135.2,1079.5,104.4z"/>
			
				<linearGradient id="XMLID_186_" gradientUnits="userSpaceOnUse" x1="900.6372" y1="407.0406" x2="966.3452" y2="407.0406" gradientTransform="matrix(0.9271 -0.3749 -0.3749 -0.9271 114.8872 779.7466)">
				<stop  offset="0" style="stop-color:#FFFFFF"/>
				<stop  offset="1" style="stop-color:#E43433"/>
			</linearGradient>
			<path id="XMLID_375_" fill="url(#XMLID_186_)" d="M802.7,67.5c-4.8-2.9-9.4-8.1-8.1-13.5c5-21.2,48.6-17.4,63.5-14.1
				C846.3,60.1,830.4,83.9,802.7,67.5z"/>
		</g>
	</g>
	<g id="XMLID_395_">
		<defs>
			<rect id="XMLID_381_" x="0" y="1046" width="356" height="355.3"/>
		</defs>
		<clipPath id="XMLID_187_">
			<use xlink:href="#XMLID_381_"  overflow="visible"/>
		</clipPath>
		<g id="XMLID_101_" clip-path="url(#XMLID_187_)">
			
				<linearGradient id="XMLID_188_" gradientUnits="userSpaceOnUse" x1="6.5125" y1="1082.0354" x2="205.5524" y2="1082.0354" gradientTransform="matrix(0.9681 -0.2507 0.2507 0.9681 -238.2234 198.6449)">
				<stop  offset="0" style="stop-color:#DB5B5E"/>
				<stop  offset="0.5108" style="stop-color:#AB2A29"/>
				<stop  offset="0.6593" style="stop-color:#962630"/>
				<stop  offset="1" style="stop-color:#661C1B"/>
			</linearGradient>
			<path id="XMLID_92_" fill-rule="evenodd" clip-rule="evenodd" fill="url(#XMLID_188_)" d="M203.5,1232.5
				c9.5,6.6,19.8,12.4,28.4,20c55.1,48.2,21,128.1-44.1,139.7c-19.8,3.5-40.8,2.5-59-5.9c-23.6-10.8-44.7-40.4-46.9-66.6
				c-1.6-19.5,5.8-41.4-5.6-57.3c-6.6-9.3-18.1-13.7-26.5-21.5c-26.1-24.1-14.2-67.9-27.7-100.8c-8.1-19.8-35.6-49.2-14.2-69.9
				c15.7-15.2,38.4-6.1,52,5.1c17.2,14.2,26.8,32.4,46.9,44.4c19,11.3,42.3,16.3,55,36.1c10.6,16.6,9.6,38.6,19.8,55.4
				C187,1220.1,195,1226.6,203.5,1232.5z"/>
			<g id="XMLID_98_">
				<linearGradient id="XMLID_189_" gradientUnits="userSpaceOnUse" x1="65.3733" y1="1167.0065" x2="108.2578" y2="1167.0065">
					<stop  offset="0" style="stop-color:#FFFFFF"/>
					<stop  offset="1" style="stop-color:#F7C1C0"/>
				</linearGradient>
				<path id="XMLID_108_" fill="url(#XMLID_189_)" d="M65.4,1183.6c7.4,0.3,14.9,3.4,22,5.2c4.6,1.2,12.3,4.4,16.6,1.1
					c5.1-3.8,5.2-12.8,5.4-18.4c0.4-8.2-0.8-17.1,1.2-25c1-3.9-5-5.5-6-1.7c-1.6,6.2-1.2,13-1.2,19.3c0,3.8-0.1,7.7-0.5,11.5
					c-0.2,2-0.5,7.9-2.5,9.2c-1.3,0.8-4.9-0.5-6.3-0.9c-3.5-0.8-7-1.8-10.5-2.7c-5.9-1.6-12.1-3.7-18.2-4
					C61.4,1177.2,61.4,1183.4,65.4,1183.6L65.4,1183.6z"/>
			</g>
			
				<linearGradient id="XMLID_190_" gradientUnits="userSpaceOnUse" x1="212.0351" y1="1336.5498" x2="355.1533" y2="1336.5498" gradientTransform="matrix(0.9851 0.1721 -0.1721 0.9851 196.328 -102.335)">
				<stop  offset="0" style="stop-color:#DB5B5E"/>
				<stop  offset="0.5108" style="stop-color:#AB2A29"/>
				<stop  offset="0.6593" style="stop-color:#962630"/>
				<stop  offset="1" style="stop-color:#661C1B"/>
			</linearGradient>
			<path id="XMLID_93_" fill-rule="evenodd" clip-rule="evenodd" fill="url(#XMLID_190_)" d="M285.9,1380.6
				c-2.8,8.3-7.6,16.4-15.5,24.1c-39.9,38.7-127.3,7.9-112.6-53.6c9-37.7,57.5-59.9,55-102.1c-0.8-13.8-7-28.8,0.2-40.7
				c7.2-11.9,24.1-13.8,33.3-24.2c17.9-20.3,11.7-54.5,40.3-69.7c30-15.9,45.9,13.3,29.5,39.5c-7.3,11.6-16.8,23.8-14.9,37.4
				c2.3,16.2,20.1,27.1,21.4,43.3c1.5,19-19.4,31.4-28.1,48.4C278.4,1314.1,296.4,1349.2,285.9,1380.6z"/>
			<g id="XMLID_96_">
				<linearGradient id="XMLID_191_" gradientUnits="userSpaceOnUse" x1="238.9113" y1="1232.3074" x2="286.8114" y2="1232.3074">
					<stop  offset="0" style="stop-color:#FFFFFF"/>
					<stop  offset="1" style="stop-color:#F7C1C0"/>
				</linearGradient>
				<path id="XMLID_107_" fill="url(#XMLID_191_)" d="M236.8,1209.4c6.3,14.9,4.2,31.6,4.9,47.4c0.1,2.6,3.4,4.2,5.3,2.2
					c11.2-11.8,23.7-25.7,40.5-28.3c3.9-0.6,2.3-6.6-1.7-6c-17.9,2.8-31.4,17.4-43.3,29.9c1.8,0.7,3.5,1.5,5.3,2.2
					c-0.7-17.1,1.1-34.4-5.8-50.6C240.6,1202.6,235.3,1205.8,236.8,1209.4L236.8,1209.4z"/>
			</g>
			<g id="XMLID_97_">
				<linearGradient id="XMLID_192_" gradientUnits="userSpaceOnUse" x1="199.0766" y1="1328.1736" x2="257.1702" y2="1328.1736">
					<stop  offset="0" style="stop-color:#FFFFFF"/>
					<stop  offset="1" style="stop-color:#F7C1C0"/>
				</linearGradient>
				<path id="XMLID_106_" fill="url(#XMLID_192_)" d="M196.7,1303.2c3.8,16.8,9.1,33.4,10.2,50.7c0.1,2.2,2.6,4.1,4.7,2.7
					c15.1-10.5,30.5-20.6,46.9-29.1c3.6-1.8,0.4-7.2-3.1-5.4c-16.4,8.5-31.7,18.6-46.9,29.1c1.6,0.9,3.1,1.8,4.7,2.7
					c-1.1-17.9-6.6-34.9-10.4-52.3C201.8,1297.6,195.8,1299.3,196.7,1303.2L196.7,1303.2z"/>
			</g>
			<g id="XMLID_99_">
				<linearGradient id="XMLID_193_" gradientUnits="userSpaceOnUse" x1="100.0498" y1="1252.5966" x2="158.014" y2="1252.5966">
					<stop  offset="0" style="stop-color:#FFFFFF"/>
					<stop  offset="1" style="stop-color:#F7C1C0"/>
				</linearGradient>
				<path id="XMLID_103_" fill="url(#XMLID_193_)" d="M99.4,1258.1c17.7,4.5,35.6,12.2,47.7,26.4c1.7,2,4.4,0.6,5.2-1.4
					c7.6-18.9,4.6-39.8,8.1-59.5c0.7-3.9-5.3-5.6-6-1.7c-3.4,19.7-0.5,40.7-8.1,59.5c1.7-0.5,3.5-0.9,5.2-1.4
					c-12.8-14.9-31.8-23.3-50.5-28C97.1,1251.1,95.5,1257.1,99.4,1258.1L99.4,1258.1z"/>
			</g>
			<g id="XMLID_94_">
				<linearGradient id="XMLID_194_" gradientUnits="userSpaceOnUse" x1="37.6473" y1="1277.3857" x2="192.8335" y2="1277.3857">
					<stop  offset="0" style="stop-color:#FFFFFF"/>
					<stop  offset="1" style="stop-color:#F7C1C0"/>
				</linearGradient>
				<path id="XMLID_109_" fill="url(#XMLID_194_)" d="M36.5,1106.1c36.7,27.9,61.4,69.7,81.7,110.3c22.8,45.9,40.6,93.4,52.3,143.3
					c7.2,30.7,12.9,61.7,18.8,92.7c0.7,3.9,6.7,2.3,6-1.7c-10.6-56.1-20.6-112.9-40.6-166.6c-16.5-44.4-37.4-88.9-64.2-128.1
					c-14.2-20.8-30.7-40.1-50.8-55.4C36.4,1098.3,33.3,1103.7,36.5,1106.1L36.5,1106.1z"/>
			</g>
			<g id="XMLID_95_">
				<linearGradient id="XMLID_195_" gradientUnits="userSpaceOnUse" x1="179.2379" y1="1312.2808" x2="287.3058" y2="1312.2808">
					<stop  offset="0" style="stop-color:#FFFFFF"/>
					<stop  offset="1" style="stop-color:#F7C1C0"/>
				</linearGradient>
				<path id="XMLID_184_" fill="url(#XMLID_195_)" d="M284,1156.5c-18.2,42.8-37.7,85.1-53.4,129c-13.9,38.8-21.7,78.8-32,118.6
					c-5.4,20.8-11.5,41.7-21.5,60.9c-1.9,3.5,3.5,6.7,5.4,3.1c17.8-33.9,24.8-72.6,33.4-109.5c10-42.7,24.5-83.6,41.4-124.1
					c10.5-25,21.5-49.8,32.1-74.8C291,1156,285.6,1152.9,284,1156.5L284,1156.5z"/>
			</g>
		</g>
	</g>
</g>
</svg>
